<?xml version="1.0" encoding="UTF-8"?>
<svg xmlns="http://www.w3.org/2000/svg" xmlns:xlink="http://www.w3.org/1999/xlink" version="1.1" viewBox="0 0 1080 1080">
  <defs>
    <style>
      .cls-1 {
        fill: url(#linear-gradient-5);
        filter: url(#outer-glow-12);
      }

      .cls-1, .cls-2, .cls-3, .cls-4, .cls-5, .cls-6, .cls-7, .cls-8, .cls-9, .cls-10, .cls-11, .cls-12, .cls-13, .cls-14, .cls-15, .cls-16 {
        stroke-width: 0px;
      }

      .cls-2 {
        fill: url(#linear-gradient);
      }

      .cls-3 {
        fill: #ffec00;
      }

      .cls-4 {
        fill: #000;
      }

      .cls-5 {
        fill: #fefde5;
      }

      .cls-6 {
        filter: url(#outer-glow-13);
      }

      .cls-6, .cls-7, .cls-8, .cls-9, .cls-10, .cls-11, .cls-12, .cls-13 {
        fill: #fff;
      }

      .cls-7 {
        filter: url(#outer-glow-16);
      }

      .cls-8 {
        filter: url(#outer-glow-18);
      }

      .cls-9 {
        filter: url(#outer-glow-19);
      }

      .cls-10 {
        filter: url(#outer-glow-14);
      }

      .cls-11 {
        filter: url(#outer-glow-15);
      }

      .cls-12 {
        filter: url(#outer-glow-17);
      }

      .cls-13 {
        filter: url(#outer-glow-20);
      }

      .cls-14 {
        fill: url(#linear-gradient-4);
      }

      .cls-15 {
        fill: url(#linear-gradient-2);
      }

      .cls-16 {
        fill: url(#linear-gradient-3);
      }

      .cls-17 {
        filter: url(#drop-shadow-11);
      }
    </style>
    <linearGradient id="linear-gradient" x1="539.85" y1="147.7" x2="539.85" y2="935.13" gradientUnits="userSpaceOnUse">
      <stop offset="0" stop-color="#ffec00"/>
      <stop offset=".12" stop-color="#f8e500"/>
      <stop offset=".29" stop-color="#e8d100"/>
      <stop offset=".49" stop-color="#ccb200"/>
      <stop offset=".72" stop-color="#a58600"/>
      <stop offset=".96" stop-color="#754e00"/>
      <stop offset="1" stop-color="#6d4501"/>
    </linearGradient>
    <filter id="drop-shadow-11" filterUnits="userSpaceOnUse">
      <feOffset dx="0" dy="35.3"/>
      <feGaussianBlur result="blur" stdDeviation="11.35"/>
      <feFlood flood-color="#000" flood-opacity="1"/>
      <feComposite in2="blur" operator="in"/>
      <feComposite in="SourceGraphic"/>
    </filter>
    <linearGradient id="linear-gradient-2" x1="539.92" y1="287.98" x2="539.92" y2="794.77" gradientUnits="userSpaceOnUse">
      <stop offset="0" stop-color="#fffbcf"/>
      <stop offset=".47" stop-color="#ffec00"/>
    </linearGradient>
    <linearGradient id="linear-gradient-3" x1="539.92" y1="324.2" x2="539.92" y2="758.55" gradientTransform="translate(1079.84 1082.75) rotate(-180)" gradientUnits="userSpaceOnUse">
      <stop offset="0" stop-color="#1a1a1a"/>
      <stop offset="1" stop-color="#000"/>
    </linearGradient>
    <linearGradient id="linear-gradient-4" x1="539.92" y1="319.16" x2="539.92" y2="763.59" xlink:href="#linear-gradient-2"/>
    <linearGradient id="linear-gradient-5" x1="542.03" y1="401.99" x2="542.03" y2="586.17" xlink:href="#linear-gradient-2"/>
    <filter id="outer-glow-12" filterUnits="userSpaceOnUse">
      <feOffset dx="0" dy="0"/>
      <feGaussianBlur result="blur-2" stdDeviation="3.78"/>
      <feFlood flood-color="#ffec00" flood-opacity=".5"/>
      <feComposite in2="blur-2" operator="in"/>
      <feComposite in="SourceGraphic"/>
    </filter>
    <filter id="outer-glow-13" filterUnits="userSpaceOnUse">
      <feOffset dx="0" dy="0"/>
      <feGaussianBlur result="blur-3" stdDeviation="3.78"/>
      <feFlood flood-color="#fff" flood-opacity=".5"/>
      <feComposite in2="blur-3" operator="in"/>
      <feComposite in="SourceGraphic"/>
    </filter>
    <filter id="outer-glow-14" filterUnits="userSpaceOnUse">
      <feOffset dx="0" dy="0"/>
      <feGaussianBlur result="blur-4" stdDeviation="3.78"/>
      <feFlood flood-color="#fff" flood-opacity=".5"/>
      <feComposite in2="blur-4" operator="in"/>
      <feComposite in="SourceGraphic"/>
    </filter>
    <filter id="outer-glow-15" filterUnits="userSpaceOnUse">
      <feOffset dx="0" dy="0"/>
      <feGaussianBlur result="blur-5" stdDeviation="3.78"/>
      <feFlood flood-color="#fff" flood-opacity=".5"/>
      <feComposite in2="blur-5" operator="in"/>
      <feComposite in="SourceGraphic"/>
    </filter>
    <filter id="outer-glow-16" filterUnits="userSpaceOnUse">
      <feOffset dx="0" dy="0"/>
      <feGaussianBlur result="blur-6" stdDeviation="3.78"/>
      <feFlood flood-color="#fff" flood-opacity=".5"/>
      <feComposite in2="blur-6" operator="in"/>
      <feComposite in="SourceGraphic"/>
    </filter>
    <filter id="outer-glow-17" filterUnits="userSpaceOnUse">
      <feOffset dx="0" dy="0"/>
      <feGaussianBlur result="blur-7" stdDeviation="3.78"/>
      <feFlood flood-color="#fff" flood-opacity=".5"/>
      <feComposite in2="blur-7" operator="in"/>
      <feComposite in="SourceGraphic"/>
    </filter>
    <filter id="outer-glow-18" filterUnits="userSpaceOnUse">
      <feOffset dx="0" dy="0"/>
      <feGaussianBlur result="blur-8" stdDeviation="3.78"/>
      <feFlood flood-color="#fff" flood-opacity=".5"/>
      <feComposite in2="blur-8" operator="in"/>
      <feComposite in="SourceGraphic"/>
    </filter>
    <filter id="outer-glow-19" filterUnits="userSpaceOnUse">
      <feOffset dx="0" dy="0"/>
      <feGaussianBlur result="blur-9" stdDeviation="3.78"/>
      <feFlood flood-color="#fff" flood-opacity=".5"/>
      <feComposite in2="blur-9" operator="in"/>
      <feComposite in="SourceGraphic"/>
    </filter>
    <filter id="outer-glow-20" filterUnits="userSpaceOnUse">
      <feOffset dx="0" dy="0"/>
      <feGaussianBlur result="blur-10" stdDeviation="3.78"/>
      <feFlood flood-color="#fff" flood-opacity=".5"/>
      <feComposite in2="blur-10" operator="in"/>
      <feComposite in="SourceGraphic"/>
    </filter>
  </defs>
  <g id="bg">
    <rect class="cls-4" width="1080" height="1080"/>
  </g>
  <g id="Layer_1" data-name="Layer 1">
    <path class="cls-2" d="M902.08,605.4c0,4.94-4.01,8.95-8.95,8.95s-8.95-4.01-8.95-8.95c0-1.32.3-2.58.81-3.71-.16-.11-.31-.22-.44-.36l-16.48-16.48h-56.24c-1.74,0-3.15-1.41-3.15-3.15s1.41-3.15,3.15-3.15h57.55c.84,0,1.64.33,2.23.92l17.4,17.4c.13.13.24.28.35.43,1.15-.54,2.42-.84,3.78-.84,4.94,0,8.95,4.01,8.95,8.95ZM898,666.12c.4,0,.81-.15,1.11-.46.62-.62.62-1.61,0-2.23l-56.51-56.51c-.3-.3-.7-.46-1.11-.46h-29.65c-.87,0-1.58.71-1.58,1.58s.71,1.58,1.58,1.58h28.99l56.05,56.05c.31.31.71.46,1.11.46ZM811.84,633.64c-1.74,0-3.15,1.41-3.15,3.15s1.41,3.15,3.15,3.15h27.02c1.74,0,3.15-1.41,3.15-3.15s-1.41-3.15-3.15-3.15h-27.02ZM834.19,694.06l19.03,19.03c.31.31.71.46,1.11.46s.81-.15,1.11-.46c.62-.62.62-1.61,0-2.23l-19.49-19.49c-.3-.3-.7-.46-1.11-.46h-23c-.87,0-1.58.71-1.58,1.58s.71,1.58,1.58,1.58h22.35ZM803.34,753.53c0,1.74,1.41,3.15,3.15,3.15h26.6c1.74,0,3.15-1.41,3.15-3.15s-1.41-3.15-3.15-3.15h-26.6c-1.74,0-3.15,1.41-3.15,3.15ZM811.84,504.34h57.55c.84,0,1.64-.33,2.23-.92l17.4-17.4c1.23-1.23,1.23-3.23,0-4.46-1.23-1.23-3.23-1.23-4.46,0l-16.48,16.48h-56.24c-1.74,0-3.15,1.41-3.15,3.15s1.41,3.15,3.15,3.15ZM899.11,417.23c-.62-.62-1.61-.62-2.23,0l-56.05,56.05h-28.99c-.87,0-1.58.71-1.58,1.58s.71,1.58,1.58,1.58h29.65c.42,0,.82-.17,1.11-.46l56.51-56.51c.62-.62.62-1.61,0-2.23ZM811.84,449.26h27.02c1.74,0,3.15-1.41,3.15-3.15s-1.41-3.15-3.15-3.15h-27.02c-1.74,0-3.15,1.41-3.15,3.15s1.41,3.15,3.15,3.15ZM834.84,391.98c.42,0,.82-.17,1.11-.46l19.49-19.49c.62-.62.62-1.61,0-2.23s-1.61-.62-2.23,0l-19.03,19.03h-22.35c-.87,0-1.58.71-1.58,1.58s.71,1.58,1.58,1.58h23ZM836.24,329.37c0-1.74-1.41-3.15-3.15-3.15h-26.6c-1.74,0-3.15,1.41-3.15,3.15s1.41,3.15,3.15,3.15h26.6c1.74,0,3.15-1.41,3.15-3.15ZM168.57,531.18h99.29c1.74,0,3.15-1.41,3.15-3.15s-1.41-3.15-3.15-3.15h-99.29c-1.74,0-3.15,1.41-3.15,3.15s1.41,3.15,3.15,3.15ZM168.57,558.02h99.29c1.74,0,3.15-1.41,3.15-3.15s-1.41-3.15-3.15-3.15h-99.29c-1.74,0-3.15,1.41-3.15,3.15s1.41,3.15,3.15,3.15ZM195.14,601.33l16.48-16.48h56.24c1.74,0,3.15-1.41,3.15-3.15s-1.41-3.15-3.15-3.15h-57.55c-.84,0-1.64.33-2.23.92l-17.4,17.4c-1.23,1.23-1.23,3.23,0,4.46.62.62,1.42.92,2.23.92s1.61-.31,2.23-.92ZM167.35,665.54c.31.38.77.58,1.22.58.35,0,.7-.12.99-.35l69.21-56.16h29.09c.87,0,1.58-.71,1.58-1.58s-.71-1.58-1.58-1.58h-29.65c-.36,0-.71.12-.99.35l-69.64,56.51c-.67.55-.78,1.54-.23,2.22ZM240.85,639.94h27.01c1.74,0,3.15-1.41,3.15-3.15s-1.41-3.15-3.15-3.15h-27.01c-1.74,0-3.15,1.41-3.15,3.15s1.41,3.15,3.15,3.15ZM208.89,699.73l33.26-33.26h25.71c1.74,0,3.15-1.41,3.15-3.15s-1.41-3.15-3.15-3.15h-27.01c-.84,0-1.64.33-2.23.92l-33.26,33.26h-36.78c-1.74,0-3.15,1.41-3.15,3.15s1.41,3.15,3.15,3.15h38.09c.84,0,1.64-.33,2.23-.92ZM244.86,690.91c-.42,0-.82.17-1.11.46l-19.49,19.49c-.62.62-.62,1.61,0,2.23.31.31.71.46,1.11.46s.81-.15,1.11-.46l19.03-19.03h22.35c.87,0,1.58-.71,1.58-1.58s-.71-1.58-1.58-1.58h-23ZM247.92,726.32l-20.39,20.39c-.59.59-1.39.92-2.23.92h-27.07c-1.39,5.15-6.09,8.95-11.67,8.95-6.67,0-12.1-5.43-12.1-12.1s5.43-12.1,12.1-12.1c5.58,0,10.28,3.8,11.67,8.95h25.76l20.39-20.39c.59-.59,1.39-.92,2.23-.92h21.25c1.74,0,3.15,1.41,3.15,3.15s-1.41,3.15-3.15,3.15h-19.94ZM192.36,744.49c0-3.2-2.6-5.8-5.8-5.8s-5.79,2.6-5.79,5.8,2.6,5.79,5.79,5.79,5.8-2.6,5.8-5.79ZM276.36,753.53c0-1.74-1.41-3.15-3.15-3.15h-26.6c-1.74,0-3.15,1.41-3.15,3.15s1.41,3.15,3.15,3.15h26.6c1.74,0,3.15-1.41,3.15-3.15ZM174.46,477.49c0-6.67,5.43-12.1,12.1-12.1s12.1,5.43,12.1,12.1c0,2.18-.59,4.22-1.6,5.99l14.56,14.56h56.24c1.74,0,3.15,1.41,3.15,3.15s-1.41,3.15-3.15,3.15h-57.55c-.84,0-1.64-.33-2.23-.92l-15.47-15.47c-1.78,1.04-3.85,1.64-6.05,1.64-6.67,0-12.1-5.43-12.1-12.1ZM180.77,477.49c0,3.2,2.6,5.8,5.79,5.8s5.8-2.6,5.8-5.8-2.6-5.8-5.8-5.8-5.79,2.6-5.79,5.8ZM238.87,473.29l-56.05-56.05c-.62-.62-1.61-.62-2.23,0s-.62,1.61,0,2.23l56.51,56.51c.3.3.7.46,1.11.46h29.65c.87,0,1.58-.71,1.58-1.58s-.71-1.58-1.58-1.58h-28.99ZM271.01,446.11c0-1.74-1.41-3.15-3.15-3.15h-27.01c-1.74,0-3.15,1.41-3.15,3.15s1.41,3.15,3.15,3.15h27.01c1.74,0,3.15-1.41,3.15-3.15ZM208.89,383.17l33.26,33.26h25.71c1.74,0,3.15,1.41,3.15,3.15s-1.41,3.15-3.15,3.15h-27.01c-.84,0-1.64-.33-2.23-.92l-33.26-33.26h-7.13c-1.39,5.15-6.09,8.95-11.67,8.95-6.67,0-12.1-5.43-12.1-12.1s5.43-12.1,12.1-12.1c5.58,0,10.28,3.8,11.67,8.95h8.43c.84,0,1.64.33,2.23.92ZM192.36,385.39c0-3.2-2.6-5.8-5.8-5.8s-5.79,2.6-5.79,5.8,2.6,5.8,5.79,5.8,5.8-2.6,5.8-5.8ZM244.86,391.98h23c.87,0,1.58-.71,1.58-1.58s-.71-1.58-1.58-1.58h-22.35l-19.03-19.03c-.62-.62-1.61-.62-2.23,0s-.62,1.61,0,2.23l19.49,19.49c.3.3.7.46,1.11.46ZM168.57,341.56h55.42l20.39,20.39c.59.59,1.39.92,2.23.92h21.25c1.74,0,3.15-1.41,3.15-3.15s-1.41-3.15-3.15-3.15h-19.94l-20.39-20.39c-.59-.59-1.39-.92-2.23-.92h-56.72c-1.74,0-3.15,1.41-3.15,3.15s1.41,3.15,3.15,3.15ZM273.21,326.22h-26.6c-1.74,0-3.15,1.41-3.15,3.15s1.41,3.15,3.15,3.15h26.6c1.74,0,3.15-1.41,3.15-3.15s-1.41-3.15-3.15-3.15ZM539.96,147.7c-1.74,0-3.15,1.41-3.15,3.15v140.28c0,1.74,1.41,3.15,3.15,3.15s3.15-1.41,3.15-3.15v-140.28c0-1.74-1.41-3.15-3.15-3.15ZM516.29,184.6c-.87,0-1.58.71-1.58,1.58v104.95c0,.87.71,1.58,1.58,1.58s1.58-.71,1.58-1.58v-104.95c0-.87-.71-1.58-1.58-1.58ZM492.53,147.7c-1.74,0-3.15,1.41-3.15,3.15v140.28c0,1.74,1.41,3.15,3.15,3.15s3.15-1.41,3.15-3.15v-140.28c0-1.74-1.41-3.15-3.15-3.15ZM465.87,230.16v60.97c0,1.74,1.41,3.15,3.15,3.15s3.15-1.41,3.15-3.15v-62.27c0-.84-.33-1.64-.92-2.23l-41.73-41.73v-19.62c0-1.74-1.41-3.15-3.15-3.15s-3.15,1.41-3.15,3.15v20.93c0,.84.33,1.64.92,2.23l41.73,41.73ZM377.92,230.55c.59.59,1.39.92,2.23.92h33.19l29.4,29.4v30.26c0,1.74,1.41,3.15,3.15,3.15s3.15-1.41,3.15-3.15v-31.56c0-.84-.33-1.64-.92-2.23l-31.25-31.25c-.59-.59-1.39-.92-2.23-.92h-33.19l-17.77-17.77c-1.23-1.23-3.23-1.23-4.46,0-1.23,1.23-1.23,3.23,0,4.46l18.69,18.69ZM425.93,271.85c0-.84-.33-1.64-.92-2.23l-20.82-20.82c-1.23-1.23-3.23-1.23-4.46,0-1.23,1.23-1.23,3.23,0,4.46l19.89,19.89v17.98c0,1.74,1.41,3.15,3.15,3.15s3.15-1.41,3.15-3.15v-19.28ZM460.92,179.02c4.94,0,8.95-4.01,8.95-8.95s-4.01-8.95-8.95-8.95-8.95,4.01-8.95,8.95,4.01,8.95,8.95,8.95ZM397.06,272.48c0-.87-.71-1.58-1.58-1.58s-1.58.71-1.58,1.58v18.65c0,.87.71,1.58,1.58,1.58s1.58-.71,1.58-1.58v-18.65ZM245.08,252.47h72.99l21.31,21.31v17.35c0,1.74,1.41,3.15,3.15,3.15s3.15-1.41,3.15-3.15v-18.65c0-.84-.33-1.64-.92-2.23l-23.15-23.15c-.59-.59-1.39-.92-2.23-.92h-74.3c-1.74,0-3.15,1.41-3.15,3.15s1.41,3.15,3.15,3.15ZM312.71,276.4c0-1.74-1.41-3.15-3.15-3.15h-20.23c-1.74,0-3.15,1.41-3.15,3.15s1.41,3.15,3.15,3.15h17.08v15.59c0,1.74,1.41,3.15,3.15,3.15s3.15-1.41,3.15-3.15v-18.74ZM340.35,231.85c1.32,0,2.56-.29,3.69-.8l21.29,21.29v38.79c0,1.74,1.41,3.15,3.15,3.15s3.15-1.41,3.15-3.15v-40.1c0-.84-.33-1.64-.92-2.23l-22.22-22.22c.51-1.13.8-2.37.8-3.69,0-4.94-4.01-8.95-8.95-8.95s-8.95,4.01-8.95,8.95,4.01,8.95,8.95,8.95ZM563.62,184.6c-.87,0-1.58.71-1.58,1.58v104.95c0,.87.71,1.58,1.58,1.58s1.58-.71,1.58-1.58v-104.95c0-.87-.71-1.58-1.58-1.58ZM587.39,147.7c-1.74,0-3.15,1.41-3.15,3.15v140.28c0,1.74,1.41,3.15,3.15,3.15s3.15-1.41,3.15-3.15v-140.28c0-1.74-1.41-3.15-3.15-3.15ZM610.9,294.28c1.74,0,3.15-1.41,3.15-3.15v-60.97l41.73-41.73c.59-.59.92-1.39.92-2.23v-20.93c0-1.74-1.41-3.15-3.15-3.15s-3.15,1.41-3.15,3.15v19.62l-41.73,41.73c-.59.59-.92,1.39-.92,2.23v62.27c0,1.74,1.41,3.15,3.15,3.15ZM630.87,259.56v31.56c0,1.74,1.41,3.15,3.15,3.15s3.15-1.41,3.15-3.15v-30.26l29.4-29.4h33.19c.84,0,1.64-.33,2.23-.92l18.69-18.69c1.23-1.23,1.23-3.23,0-4.46-1.23-1.23-3.23-1.23-4.46,0l-17.77,17.77h-33.19c-.84,0-1.64.33-2.23.92l-31.25,31.25c-.59.59-.92,1.39-.92,2.23ZM680.18,248.8c-1.23-1.23-3.23-1.23-4.46,0l-20.82,20.82c-.59.59-.92,1.39-.92,2.23v19.28c0,1.74,1.41,3.15,3.15,3.15s3.15-1.41,3.15-3.15v-17.98l19.89-19.89c1.23-1.23,1.23-3.23,0-4.46ZM618.99,179.02c4.94,0,8.95-4.01,8.95-8.95s-4.01-8.95-8.95-8.95-8.95,4.01-8.95,8.95,4.01,8.95,8.95,8.95ZM686.01,272.48c0-.87-.71-1.58-1.58-1.58s-1.58.71-1.58,1.58v18.65c0,.87.71,1.58,1.58,1.58s1.58-.71,1.58-1.58v-18.65ZM709.21,248.8c-.59.59-.92,1.39-.92,2.23v40.1c0,1.74,1.41,3.15,3.15,3.15s3.15-1.41,3.15-3.15v-38.79l21.29-21.29c1.13.51,2.37.8,3.69.8,4.94,0,8.95-4.01,8.95-8.95s-4.01-8.95-8.95-8.95-8.95,4.01-8.95,8.95c0,1.32.29,2.56.8,3.69l-22.22,22.22ZM734.24,272.48v18.65c0,1.74,1.41,3.15,3.15,3.15s3.15-1.41,3.15-3.15v-17.35l21.31-21.31h72.99c1.74,0,3.15-1.41,3.15-3.15s-1.41-3.15-3.15-3.15h-74.3c-.84,0-1.64.33-2.23.92l-23.15,23.15c-.59.59-.92,1.39-.92,2.23ZM790.6,273.25h-20.23c-1.74,0-3.15,1.41-3.15,3.15v18.74c0,1.74,1.41,3.15,3.15,3.15s3.15-1.41,3.15-3.15v-15.59h17.08c1.74,0,3.15-1.41,3.15-3.15s-1.41-3.15-3.15-3.15ZM241.93,300.31v-23.91c0-1.74,1.41-3.15,3.15-3.15h24.23c1.74,0,3.15,1.41,3.15,3.15v23.91c0,1.74-1.41,3.15-3.15,3.15h-24.23c-1.74,0-3.15-1.41-3.15-3.15ZM248.23,297.16h17.92v-17.6h-17.92v17.6ZM810.61,303.46c-1.74,0-3.15-1.41-3.15-3.15v-23.91c0-1.74,1.41-3.15,3.15-3.15h24.23c1.74,0,3.15,1.41,3.15,3.15v23.91c0,1.74-1.41,3.15-3.15,3.15h-24.23ZM813.76,297.16h17.92v-17.6h-17.92v17.6ZM539.96,788.55c-1.74,0-3.15,1.41-3.15,3.15v140.28c0,1.74,1.41,3.15,3.15,3.15s3.15-1.41,3.15-3.15v-140.28c0-1.74-1.41-3.15-3.15-3.15ZM563.62,790.12c-.87,0-1.58.71-1.58,1.58v104.95c0,.87.71,1.58,1.58,1.58s1.58-.71,1.58-1.58v-104.95c0-.87-.71-1.58-1.58-1.58ZM587.39,788.55c-1.74,0-3.15,1.41-3.15,3.15v140.28c0,1.74,1.41,3.15,3.15,3.15s3.15-1.41,3.15-3.15v-140.28c0-1.74-1.41-3.15-3.15-3.15ZM614.05,852.67v-60.97c0-1.74-1.41-3.15-3.15-3.15s-3.15,1.41-3.15,3.15v62.27c0,.84.33,1.64.92,2.23l41.73,41.73v19.62c0,1.74,1.41,3.15,3.15,3.15s3.15-1.41,3.15-3.15v-20.93c0-.84-.33-1.64-.92-2.23l-41.73-41.73ZM701.99,852.29c-.59-.59-1.39-.92-2.23-.92h-33.19l-29.4-29.4v-30.26c0-1.74-1.41-3.15-3.15-3.15s-3.15,1.41-3.15,3.15v31.57c0,.84.33,1.64.92,2.23l31.25,31.25c.59.59,1.39.92,2.23.92h33.19l17.77,17.77c.62.62,1.42.92,2.23.92s1.61-.31,2.23-.92c1.23-1.23,1.23-3.23,0-4.46l-18.69-18.69ZM657.14,788.55c-1.74,0-3.15,1.41-3.15,3.15v19.28c0,.84.33,1.64.92,2.23l20.82,20.82c.62.62,1.42.92,2.23.92s1.61-.31,2.23-.92c1.23-1.23,1.23-3.23,0-4.46l-19.89-19.89v-17.98c0-1.74-1.41-3.15-3.15-3.15ZM631.09,912.75c0,6.67-5.43,12.1-12.1,12.1s-12.1-5.43-12.1-12.1,5.43-12.1,12.1-12.1,12.1,5.43,12.1,12.1ZM624.79,912.75c0-3.2-2.6-5.8-5.8-5.8s-5.8,2.6-5.8,5.8,2.6,5.79,5.8,5.79,5.8-2.6,5.8-5.79ZM684.43,790.12c-.87,0-1.58.71-1.58,1.58v18.65c0,.87.71,1.58,1.58,1.58s1.58-.71,1.58-1.58v-18.65c0-.87-.71-1.58-1.58-1.58ZM834.84,830.36h-72.99l-21.31-21.31v-17.35c0-1.74-1.41-3.15-3.15-3.15s-3.15,1.41-3.15,3.15v18.65c0,.84.33,1.64.92,2.23l23.15,23.15c.59.59,1.39.92,2.23.92h74.3c1.74,0,3.15-1.41,3.15-3.15s-1.41-3.15-3.15-3.15ZM751.67,859.93c0,6.67-5.43,12.1-12.1,12.1s-12.1-5.43-12.1-12.1c0-2.19.6-4.25,1.62-6.02l-19.88-19.88c-.59-.59-.92-1.39-.92-2.23v-40.1c0-1.74,1.41-3.15,3.15-3.15s3.15,1.41,3.15,3.15v38.8l18.96,18.96c1.78-1.02,3.83-1.62,6.02-1.62,6.67,0,12.1,5.43,12.1,12.1ZM745.36,859.93c0-3.19-2.6-5.79-5.79-5.79-1.54,0-2.94.62-3.98,1.6-.03.04-.06.08-.1.12-.04.04-.08.06-.12.1-.99,1.04-1.6,2.44-1.6,3.98,0,3.2,2.6,5.8,5.8,5.8s5.79-2.6,5.79-5.8ZM516.29,790.12c-.87,0-1.58.71-1.58,1.58v104.95c0,.87.71,1.58,1.58,1.58s1.58-.71,1.58-1.58v-104.95c0-.87-.71-1.58-1.58-1.58ZM492.53,788.55c-1.74,0-3.15,1.41-3.15,3.15v140.28c0,1.74,1.41,3.15,3.15,3.15s3.15-1.41,3.15-3.15v-140.28c0-1.74-1.41-3.15-3.15-3.15ZM472.17,853.97v-62.27c0-1.74-1.41-3.15-3.15-3.15s-3.15,1.41-3.15,3.15v60.97l-41.73,41.73c-.59.59-.92,1.39-.92,2.23v20.93c0,1.74,1.41,3.15,3.15,3.15s3.15-1.41,3.15-3.15v-19.62l41.73-41.73c.59-.59.92-1.39.92-2.23ZM449.05,823.27v-31.57c0-1.74-1.41-3.15-3.15-3.15s-3.15,1.41-3.15,3.15v30.26l-29.4,29.4h-33.19c-.84,0-1.64.33-2.23.92l-18.69,18.69c-1.23,1.23-1.23,3.23,0,4.46.62.62,1.42.92,2.23.92s1.61-.31,2.23-.92l17.77-17.77h33.19c.84,0,1.64-.33,2.23-.92l31.25-31.25c.59-.59.92-1.39.92-2.23ZM422.78,788.55c-1.74,0-3.15,1.41-3.15,3.15v17.98l-19.89,19.89c-1.23,1.23-1.23,3.23,0,4.46.62.62,1.42.92,2.23.92s1.61-.31,2.23-.92l20.82-20.82c.59-.59.92-1.39.92-2.23v-19.28c0-1.74-1.41-3.15-3.15-3.15ZM473.02,912.75c0,6.67-5.43,12.1-12.1,12.1s-12.1-5.43-12.1-12.1,5.43-12.1,12.1-12.1,12.1,5.43,12.1,12.1ZM466.72,912.75c0-3.2-2.6-5.8-5.8-5.8s-5.8,2.6-5.8,5.8,2.6,5.79,5.8,5.79,5.8-2.6,5.8-5.79ZM395.49,790.12c-.87,0-1.58.71-1.58,1.58v18.65c0,.87.71,1.58,1.58,1.58s1.58-.71,1.58-1.58v-18.65c0-.87-.71-1.58-1.58-1.58ZM350.83,853.91c1.02,1.78,1.62,3.83,1.62,6.02,0,6.67-5.43,12.1-12.1,12.1s-12.1-5.43-12.1-12.1,5.43-12.1,12.1-12.1c2.19,0,4.25.6,6.02,1.62l18.96-18.96v-38.8c0-1.74,1.41-3.15,3.15-3.15s3.15,1.41,3.15,3.15v40.1c0,.84-.33,1.64-.92,2.23l-19.88,19.88ZM346.15,859.93c0-3.19-2.6-5.79-5.8-5.79s-5.79,2.6-5.79,5.79,2.6,5.8,5.79,5.8,5.8-2.6,5.8-5.8ZM345.68,810.35v-18.65c0-1.74-1.41-3.15-3.15-3.15s-3.15,1.41-3.15,3.15v17.35l-21.31,21.31h-72.99c-1.74,0-3.15,1.41-3.15,3.15s1.41,3.15,3.15,3.15h74.3c.84,0,1.64-.33,2.23-.92l23.15-23.15c.59-.59.92-1.39.92-2.23ZM770.36,784.54c-1.74,0-3.15,1.41-3.15,3.15v18.74c0,1.74,1.41,3.15,3.15,3.15h20.23c1.74,0,3.15-1.41,3.15-3.15s-1.41-3.15-3.15-3.15h-17.08v-15.59c0-1.74-1.41-3.15-3.15-3.15ZM309.55,784.54c-1.74,0-3.15,1.41-3.15,3.15v15.59h-17.08c-1.74,0-3.15,1.41-3.15,3.15s1.41,3.15,3.15,3.15h20.23c1.74,0,3.15-1.41,3.15-3.15v-18.74c0-1.74-1.41-3.15-3.15-3.15ZM837.99,782.52v23.91c0,1.74-1.41,3.15-3.15,3.15h-24.23c-1.74,0-3.15-1.41-3.15-3.15v-23.91c0-1.74,1.41-3.15,3.15-3.15h24.23c1.74,0,3.15,1.41,3.15,3.15ZM831.69,785.67h-17.92v17.6h17.92v-17.6ZM269.31,779.37c1.74,0,3.15,1.41,3.15,3.15v23.91c0,1.74-1.41,3.15-3.15,3.15h-24.23c-1.74,0-3.15-1.41-3.15-3.15v-23.91c0-1.74,1.41-3.15,3.15-3.15h24.23ZM266.15,785.67h-17.92v17.6h17.92v-17.6ZM911.12,524.88h-99.29c-1.74,0-3.15,1.41-3.15,3.15s1.41,3.15,3.15,3.15h99.29c1.74,0,3.15-1.41,3.15-3.15s-1.41-3.15-3.15-3.15ZM911.12,551.71h-99.29c-1.74,0-3.15,1.41-3.15,3.15s1.41,3.15,3.15,3.15h99.29c1.74,0,3.15-1.41,3.15-3.15s-1.41-3.15-3.15-3.15ZM911.12,694.35h-36.78l-33.26-33.26c-.59-.59-1.39-.92-2.23-.92h-27.02c-1.74,0-3.15,1.41-3.15,3.15s1.41,3.15,3.15,3.15h25.71l33.26,33.26c.59.59,1.39.92,2.23.92h38.09c1.74,0,3.15-1.41,3.15-3.15s-1.41-3.15-3.15-3.15ZM893.14,397.49c-5.58,0-10.28-3.8-11.67-8.95h-7.13l-33.26,33.26c-.59.59-1.39.92-2.23.92h-27.02c-1.74,0-3.15-1.41-3.15-3.15s1.41-3.15,3.15-3.15h25.71l33.26-33.26c.59-.59,1.39-.92,2.23-.92h8.43c1.39-5.15,6.09-8.95,11.67-8.95,6.67,0,12.1,5.43,12.1,12.1s-5.43,12.1-12.1,12.1ZM898.93,385.39c0-3.2-2.6-5.8-5.8-5.8s-5.8,2.6-5.8,5.8,2.6,5.8,5.8,5.8,5.8-2.6,5.8-5.8ZM905.24,744.49c0,6.67-5.43,12.1-12.1,12.1-5.58,0-10.28-3.8-11.67-8.95h-27.07c-.84,0-1.64-.33-2.23-.92l-20.39-20.39h-19.94c-1.74,0-3.15-1.41-3.15-3.15s1.41-3.15,3.15-3.15h21.25c.84,0,1.64.33,2.23.92l20.39,20.39h25.76c1.39-5.15,6.09-8.95,11.67-8.95,6.67,0,12.1,5.43,12.1,12.1ZM898.93,744.49c0-3.2-2.6-5.8-5.8-5.8s-5.8,2.6-5.8,5.8,2.6,5.79,5.8,5.79,5.8-2.6,5.8-5.79ZM811.84,356.57c-1.74,0-3.15,1.41-3.15,3.15s1.41,3.15,3.15,3.15h21.25c.84,0,1.64-.33,2.23-.92l20.39-20.39h55.42c1.74,0,3.15-1.41,3.15-3.15s-1.41-3.15-3.15-3.15h-56.72c-.84,0-1.64.33-2.23.92l-20.39,20.39h-19.94Z"/>
    <g class="cls-17">
      <rect class="cls-4" x="268" y="291.13" width="543.84" height="500.49" rx="63.65" ry="63.65" transform="translate(1079.84 1082.75) rotate(180)"/>
      <path class="cls-15" d="M748.19,794.77h-416.54c-36.84,0-66.8-29.97-66.8-66.8v-373.19c0-36.84,29.97-66.8,66.8-66.8h416.54c36.83,0,66.8,29.97,66.8,66.8v373.19c0,36.83-29.97,66.8-66.8,66.8ZM331.65,294.28c-33.36,0-60.5,27.14-60.5,60.5v373.19c0,33.36,27.14,60.5,60.5,60.5h416.54c33.36,0,60.5-27.14,60.5-60.5v-373.19c0-33.36-27.14-60.5-60.5-60.5h-416.54Z"/>
    </g>
    <g>
      <rect class="cls-16" x="303.94" y="324.2" width="471.96" height="434.34" rx="37.53" ry="37.53" transform="translate(1079.84 1082.75) rotate(180)"/>
      <path class="cls-14" d="M738.37,763.59h-396.9c-23.47,0-42.57-19.1-42.57-42.57v-359.28c0-23.47,19.1-42.57,42.57-42.57h396.9c23.47,0,42.57,19.1,42.57,42.57v359.28c0,23.47-19.1,42.57-42.57,42.57ZM341.47,329.25c-17.91,0-32.49,14.57-32.49,32.49v359.28c0,17.91,14.57,32.49,32.49,32.49h396.9c17.91,0,32.49-14.57,32.49-32.49v-359.28c0-17.91-14.57-32.49-32.49-32.49h-396.9Z"/>
    </g>
    <g>
      <path class="cls-3" d="M417.19,679.82v-61.23h15.79v47.46h24.6v13.77h-40.39Z"/>
      <path class="cls-3" d="M538.63,679.82l-3.12-9.27h-25.43l-3.12,9.27h-17.17l23.04-61.23h19.83l23.13,61.23h-17.16ZM522.75,632.37l-8.54,24.88h17.17l-8.63-24.88Z"/>
      <path class="cls-3" d="M628.41,679.82l-9.27-38.37-9.27,38.37h-16.71l-17.53-61.23h17.72l9.27,40.85,10.46-40.85h12.12l10.47,40.85,9.18-40.85h17.81l-17.53,61.23h-16.71Z"/>
    </g>
    <g>
      <path class="cls-3" d="M714.32,724.29h-348.8c-1.74,0-3.15-1.41-3.15-3.15s1.41-3.15,3.15-3.15h348.8c1.74,0,3.15,1.41,3.15,3.15s-1.41,3.15-3.15,3.15Z"/>
      <path class="cls-5" d="M714.32,363.13h-348.8c-1.74,0-3.15-1.41-3.15-3.15s1.41-3.15,3.15-3.15h348.8c1.74,0,3.15,1.41,3.15,3.15s-1.41,3.15-3.15,3.15Z"/>
    </g>
    <path class="cls-1" d="M450.16,586.17v-118.89l-32.48,118.89h-14.04l-31.89-118.89v118.89h-35.99v-181.46h46.81l28.09,104.47,28.97-104.47h45.94v181.46h-35.4ZM588.84,586.17l-23.99-62.57-23.7,62.57h-40.67l43.01-92.5-40.67-88.96h40.67l21.36,59.31,21.36-59.31h40.96l-40.96,88.69,43.3,92.77h-40.67ZM640.92,586.17v-28.57c62.91-74,69.34-84.34,69.34-102.84,0-12.24-7.61-22.31-20.19-22.31s-22.82,6.53-30.72,20.13l-23.41-20.4c12.87-18.77,29.55-30.2,55.88-30.2,33.65,0,55.59,20.68,55.59,51.96,0,24.21-11.7,43.8-57.64,102.02h58.52v30.2h-107.38Z"/>
    <path class="cls-6" d="M893.14,489.59c-6.67,0-12.1-5.43-12.1-12.1s5.43-12.1,12.1-12.1,12.1,5.43,12.1,12.1-5.43,12.1-12.1,12.1ZM893.14,471.69c-3.2,0-5.8,2.6-5.8,5.8s2.6,5.8,5.8,5.8,5.8-2.6,5.8-5.8-2.6-5.8-5.8-5.8Z"/>
    <path class="cls-10" d="M177.61,605.4c0-4.94,4.01-8.95,8.95-8.95,4.94,0,8.95,4.01,8.95,8.95s-4.01,8.95-8.95,8.95c-4.94,0-8.95-4.01-8.95-8.95Z"/>
    <circle class="cls-11" cx="539.96" cy="943.86" r="11.88"/>
    <circle class="cls-7" cx="686.25" cy="888.75" r="8.95"/>
    <circle class="cls-12" cx="393.67" cy="888.75" r="8.95"/>
    <path class="cls-8" d="M539.96,154.01c-8.29,0-15.03-6.74-15.03-15.03s6.74-15.03,15.03-15.03,15.04,6.74,15.04,15.03-6.75,15.03-15.04,15.03ZM539.96,130.24c-4.81,0-8.73,3.92-8.73,8.73s3.92,8.73,8.73,8.73,8.73-3.92,8.73-8.73-3.92-8.73-8.73-8.73Z"/>
    <path class="cls-9" d="M393.67,206.18c-6.67,0-12.1-5.43-12.1-12.1s5.43-12.1,12.1-12.1,12.1,5.43,12.1,12.1-5.43,12.1-12.1,12.1ZM393.67,188.28c-3.2,0-5.8,2.6-5.8,5.8s2.6,5.8,5.8,5.8,5.8-2.6,5.8-5.8-2.6-5.8-5.8-5.8Z"/>
    <path class="cls-13" d="M686.25,206.18c-6.67,0-12.1-5.43-12.1-12.1s5.43-12.1,12.1-12.1,12.1,5.43,12.1,12.1-5.43,12.1-12.1,12.1ZM686.25,188.28c-3.2,0-5.8,2.6-5.8,5.8s2.6,5.8,5.8,5.8,5.8-2.6,5.8-5.8-2.6-5.8-5.8-5.8Z"/>
  </g>
</svg>